<?xml version="1.0" encoding="UTF-8" standalone="no"?>
<!-- Created with Inkscape (http://www.inkscape.org/) -->

<svg
   xmlns:dc="http://purl.org/dc/elements/1.1/"
   xmlns:cc="http://creativecommons.org/ns#"
   xmlns:rdf="http://www.w3.org/1999/02/22-rdf-syntax-ns#"
   xmlns:svg="http://www.w3.org/2000/svg"
   xmlns="http://www.w3.org/2000/svg"
   xmlns:sodipodi="http://sodipodi.sourceforge.net/DTD/sodipodi-0.dtd"
   xmlns:inkscape="http://www.inkscape.org/namespaces/inkscape"
   width="744.09448819"
   height="1052.3622047"
   id="svg2"
   version="1.1"
   inkscape:version="0.48.1 "
   sodipodi:docname="New document 1">
  <defs
     id="defs4" />
  <sodipodi:namedview
     id="base"
     pagecolor="#ffffff"
     bordercolor="#666666"
     borderopacity="1.0"
     inkscape:pageopacity="0.0"
     inkscape:pageshadow="2"
     inkscape:zoom="1.4"
     inkscape:cx="347.64065"
     inkscape:cy="667.17589"
     inkscape:document-units="px"
     inkscape:current-layer="layer1"
     showgrid="false"
     inkscape:window-width="1920"
     inkscape:window-height="1143"
     inkscape:window-x="-9"
     inkscape:window-y="-9"
     inkscape:window-maximized="1" />
  <metadata
     id="metadata7">
    <rdf:RDF>
      <cc:Work
         rdf:about="">
        <dc:format>image/svg+xml</dc:format>
        <dc:type
           rdf:resource="http://purl.org/dc/dcmitype/StillImage" />
        <dc:title></dc:title>
      </cc:Work>
    </rdf:RDF>
  </metadata>
  <g
     inkscape:label="Layer 1"
     inkscape:groupmode="layer"
     id="layer1">
    <path
       sodipodi:type="arc"
       style="fill:none;fill-opacity:1;stroke:#000000;stroke-width:1;stroke-miterlimit:4;stroke-opacity:1;stroke-dasharray:none;stroke-dashoffset:0"
       id="path2985"
       sodipodi:cx="432.85715"
       sodipodi:cy="353.79074"
       sodipodi:rx="261.42856"
       sodipodi:ry="170"
       d="m 694.28571,353.79074 a 261.42856,170 0 1 1 -522.85712,0 261.42856,170 0 1 1 522.85712,0 z" />
    <path
       sodipodi:type="arc"
       style="fill:none;stroke:#000000;stroke-width:1;stroke-miterlimit:4;stroke-opacity:1;stroke-dasharray:none;stroke-dashoffset:0"
       id="path3763"
       sodipodi:cx="235.71428"
       sodipodi:cy="366.64789"
       sodipodi:rx="30"
       sodipodi:ry="30"
       d="m 265.71428,366.64789 a 30,30 0 1 1 -60,0 30,30 0 1 1 60,0 z"
       transform="translate(-5.7142857,-16.428571)" />
    <path
       sodipodi:type="arc"
       style="fill:none;stroke:#000000;stroke-width:1;stroke-miterlimit:4;stroke-opacity:1;stroke-dasharray:none;stroke-dashoffset:0"
       id="path3763-5"
       sodipodi:cx="235.71428"
       sodipodi:cy="366.64789"
       sodipodi:rx="30"
       sodipodi:ry="30"
       d="m 265.71428,366.64789 a 30,30 0 1 1 -60,0 30,30 0 1 1 60,0 z"
       transform="translate(402.14287,-16.428564)" />
    <path
       sodipodi:type="arc"
       style="fill:none;stroke:#000000;stroke-width:1;stroke-miterlimit:4;stroke-opacity:1;stroke-dasharray:none;stroke-dashoffset:0"
       id="path3763-2"
       sodipodi:cx="235.71428"
       sodipodi:cy="366.64789"
       sodipodi:rx="30"
       sodipodi:ry="30"
       d="m 265.71428,366.64789 a 30,30 0 1 1 -60,0 30,30 0 1 1 60,0 z"
       transform="translate(314.28573,-112.14285)" />
    <path
       sodipodi:type="arc"
       style="fill:none;stroke:#000000;stroke-width:1;stroke-miterlimit:4;stroke-opacity:1;stroke-dasharray:none;stroke-dashoffset:0"
       id="path3763-0"
       sodipodi:cx="235.71428"
       sodipodi:cy="366.64789"
       sodipodi:rx="30"
       sodipodi:ry="30"
       d="m 265.71428,366.64789 a 30,30 0 1 1 -60,0 30,30 0 1 1 60,0 z"
       transform="translate(195.71429,-135)" />
    <path
       sodipodi:type="arc"
       style="fill:none;stroke:#000000;stroke-width:1;stroke-miterlimit:4;stroke-opacity:1;stroke-dasharray:none;stroke-dashoffset:0"
       id="path3763-21"
       sodipodi:cx="235.71428"
       sodipodi:cy="366.64789"
       sodipodi:rx="30"
       sodipodi:ry="30"
       d="m 265.71428,366.64789 a 30,30 0 1 1 -60,0 30,30 0 1 1 60,0 z"
       transform="translate(71.428577,-109.28571)" />
    <path
       sodipodi:type="arc"
       style="fill:none;stroke:#000000;stroke-width:1;stroke-miterlimit:4;stroke-opacity:1;stroke-dasharray:none;stroke-dashoffset:0"
       id="path3763-8"
       sodipodi:cx="235.71428"
       sodipodi:cy="366.64789"
       sodipodi:rx="30"
       sodipodi:ry="30"
       d="m 265.71428,366.64789 a 30,30 0 1 1 -60,0 30,30 0 1 1 60,0 z"
       transform="translate(122.85715,92.857149)" />
    <path
       sodipodi:type="arc"
       style="fill:none;stroke:#000000;stroke-width:1;stroke-miterlimit:4;stroke-opacity:1;stroke-dasharray:none;stroke-dashoffset:0"
       id="path3763-7"
       sodipodi:cx="235.71428"
       sodipodi:cy="366.64789"
       sodipodi:rx="30"
       sodipodi:ry="30"
       d="m 265.71428,366.64789 a 30,30 0 1 1 -60,0 30,30 0 1 1 60,0 z"
       transform="translate(272.85715,91.42858)" />
    <path
       style="fill:none;stroke:#000000;stroke-width:1px;stroke-linecap:butt;stroke-linejoin:miter;stroke-opacity:1"
       d="m 235.71429,283.07647 40.71428,40.71428"
       id="path3829"
       inkscape:connector-curvature="0" />
    <path
       style="fill:none;stroke:#000000;stroke-width:1px;stroke-linecap:butt;stroke-linejoin:miter;stroke-opacity:1"
       d="m 360,216.6479 12.09844,45.15201"
       id="path3831"
       inkscape:connector-curvature="0" />
    <path
       style="fill:none;stroke:#000000;stroke-width:1px;stroke-linecap:butt;stroke-linejoin:miter;stroke-opacity:1"
       d="m 501.42857,215.93361 -31.85141,55.16827"
       id="path3833"
       inkscape:connector-curvature="0" />
    <path
       style="fill:none;stroke:#000000;stroke-width:1px;stroke-linecap:butt;stroke-linejoin:miter;stroke-opacity:1"
       d="M 617.14286,280.93361 575,323.07647"
       id="path3835"
       inkscape:connector-curvature="0" />
    <path
       style="fill:none;stroke:#000000;stroke-width:1px;stroke-linecap:butt;stroke-linejoin:miter;stroke-opacity:1"
       d="m 567.85714,398.07647 41.42857,41.42857"
       id="path3837"
       inkscape:connector-curvature="0" />
    <path
       style="fill:none;stroke:#000000;stroke-width:1px;stroke-linecap:butt;stroke-linejoin:miter;stroke-opacity:1"
       d="m 430,435.21932 0,54.28572"
       id="path3839"
       inkscape:connector-curvature="0" />
    <path
       style="fill:none;stroke:#000000;stroke-width:1px;stroke-linecap:butt;stroke-linejoin:miter;stroke-opacity:1"
       d="m 261.42857,443.79075 29.8299,-51.66689"
       id="path3841"
       inkscape:connector-curvature="0" />
  </g>
</svg>
